<svg xmlns="http://www.w3.org/2000/svg" viewBox="0 0 73.42 49.93"><path d="M42.88,40l3.68-.56c1.81-.28,2.39-1.08,3.39-3.19l.63-1.31-5.81-26L53.44,7.8l1.89,12c.25,1.81.5,3.62.7,5.43q1.23-2.94,2.52-5.88l5.88-13,9-1.17-16,32.48C54.89,42.86,52,45.34,47.59,46L41.76,47Z" fill="#fff"/><path d="M24.88,18.56l-4.7.72L16.32,38.8c-1,6-4.33,9.26-11.24,10.34L0,49.93l1.22-7.29,2.65-.4C6.1,41.9,7,41,7.39,38.74l3.67-18.23-4.48.63,1.22-7,4.43-.73.51-3.13c1-5.74,4.53-8.85,11.14-9.65l5-.61L27.76,7,25,7.37c-2.12.27-3,1.19-3.4,3.32l-.24,1.51,4.8-.56Z" fill="#fff"/><path d="M20.69,35.55,24.5,35l1.55-7.35a5.35,5.35,0,0,1-.9.81,13.2,13.2,0,0,1-1.27.82A11,11,0,0,1,22.5,30a4.93,4.93,0,0,1-1.22.35L22.16,26a3.94,3.94,0,0,0,1.17-.47,17,17,0,0,0,1.51-.95c.51-.36,1-.72,1.39-1.08a4.17,4.17,0,0,0,.83-.84l4.56-.63L29.11,34.31l3.37-.5-.86,4.13L19.84,39.72Z" fill="#fff"/><path d="M33.68,33.64l3.73-.56,1.52-7.28a4.75,4.75,0,0,1-.88.81,12,12,0,0,1-1.24.81,11.41,11.41,0,0,1-1.36.67,5.22,5.22,0,0,1-1.19.35l.86-4.23a3.53,3.53,0,0,0,1.15-.47,14.52,14.52,0,0,0,1.48-.94c.49-.35,1-.71,1.36-1.06a4.53,4.53,0,0,0,.81-.83l4.47-.62L41.93,32.42l3.31-.49L44.39,36,32.84,37.76Z" fill="#fff"/></svg>